<svg width="308" height="308" viewBox="0 0 308 308" fill="none" xmlns="http://www.w3.org/2000/svg">
<g filter="url(#filter0_d_54_14)">
<rect x="4" width="300" height="300" rx="80" fill="#1C1B1A"/>
<rect x="9" y="5" width="290" height="290" rx="75" stroke="#DA702C" stroke-width="10"/>
</g>
<path d="M49 160.5C54.5695 160.5 59.911 158.288 63.8492 154.349C67.7875 150.411 70 145.07 70 139.5V97.5C70 91.9305 72.2125 86.589 76.1508 82.6508C80.089 78.7125 85.4305 76.5 91 76.5C96.5695 76.5 101.911 78.7125 105.849 82.6508C109.788 86.589 112 91.9305 112 97.5V234C112 239.57 114.212 244.911 118.151 248.849C122.089 252.788 127.43 255 133 255C138.57 255 143.911 252.788 147.849 248.849C151.788 244.911 154 239.57 154 234V66C154 60.4305 156.212 55.089 160.151 51.1508C164.089 47.2125 169.43 45 175 45C180.57 45 185.911 47.2125 189.849 51.1508C193.788 55.089 196 60.4305 196 66V202.5C196 208.07 198.212 213.411 202.151 217.349C206.089 221.288 211.43 223.5 217 223.5C222.57 223.5 227.911 221.288 231.849 217.349C235.788 213.411 238 208.07 238 202.5V160.5C238 154.93 240.212 149.589 244.151 145.651C248.089 141.712 253.43 139.5 259 139.5" stroke="#DA702C" stroke-width="20" stroke-linecap="round" stroke-linejoin="round"/>
<defs>
<filter id="filter0_d_54_14" x="0" y="0" width="308" height="308" filterUnits="userSpaceOnUse" color-interpolation-filters="sRGB">
<feFlood flood-opacity="0" result="BackgroundImageFix"/>
<feColorMatrix in="SourceAlpha" type="matrix" values="0 0 0 0 0 0 0 0 0 0 0 0 0 0 0 0 0 0 127 0" result="hardAlpha"/>
<feOffset dy="4"/>
<feGaussianBlur stdDeviation="2"/>
<feComposite in2="hardAlpha" operator="out"/>
<feColorMatrix type="matrix" values="0 0 0 0 0 0 0 0 0 0 0 0 0 0 0 0 0 0 0.25 0"/>
<feBlend mode="normal" in2="BackgroundImageFix" result="effect1_dropShadow_54_14"/>
<feBlend mode="normal" in="SourceGraphic" in2="effect1_dropShadow_54_14" result="shape"/>
</filter>
</defs>
</svg>
